<?xml version="1.0" encoding="UTF-8"?>
<svg id="Capa_2" data-name="Capa 2" xmlns="http://www.w3.org/2000/svg" xmlns:xlink="http://www.w3.org/1999/xlink" viewBox="0 0 407 89.28">
  <defs>
    <style>
      .cls-1 {
        fill: #001e2b;
      }

      .cls-2 {
        fill: url(#Degradado_sin_nombre_4-2);
      }

      .cls-3 {
        fill: url(#Degradado_sin_nombre_4);
      }

      .cls-4 {
        fill: url(#Degradado_sin_nombre_4-3);
      }
    </style>
    <linearGradient id="Degradado_sin_nombre_4" data-name="Degradado sin nombre 4" x1="339.44" y1="478.59" x2="369.91" y2="498" gradientTransform="translate(-287.64 499.01) scale(1 -1)" gradientUnits="userSpaceOnUse">
      <stop offset="0" stop-color="#714101"/>
      <stop offset=".22" stop-color="#b87c00"/>
      <stop offset=".51" stop-color="#ffdb4f"/>
      <stop offset=".81" stop-color="#b87c00"/>
      <stop offset="1" stop-color="#ffdb4f"/>
    </linearGradient>
    <linearGradient id="Degradado_sin_nombre_4-2" data-name="Degradado sin nombre 4" x1="344.36" y1="470.88" x2="374.83" y2="490.28" xlink:href="#Degradado_sin_nombre_4"/>
    <linearGradient id="Degradado_sin_nombre_4-3" data-name="Degradado sin nombre 4" x1="341.71" y1="475.02" x2="372.18" y2="494.43" xlink:href="#Degradado_sin_nombre_4"/>
  </defs>
  <g id="Capa_1-2" data-name="Capa 1">
    <g>
      <path class="cls-1" d="M402.57,34.64c-1.46-2.6-3.16-4.94-5.13-7.01l-5.79,10.22c.52.76,1.02,1.57,1.47,2.41,1.95,3.56,2.92,7.47,2.92,11.74s-.95,8.03-2.86,11.59c-1.87,3.52-4.46,6.36-7.76,8.53-3.26,2.13-6.93,3.2-11.02,3.2-2.78,0-5.25-.47-7.59-1.42l-7.11,8.71c4.49,2.43,9.39,3.64,14.7,3.64,4.52,0,8.73-.89,12.65-2.67,3.95-1.78,7.41-4.24,10.37-7.37,3-3.17,5.35-6.82,7.04-10.94,1.69-4.13,2.54-8.57,2.54-13.3,0-6.35-1.48-12.12-4.43-17.33ZM390.77,22.18c-4.92-3.09-10.37-4.63-16.36-4.63-4.47,0-8.7.89-12.65,2.67-3.96,1.78-7.43,4.26-10.43,7.42-2.96,3.13-5.28,6.79-6.98,10.95-1.7,4.13-2.55,8.59-2.55,13.37,0,6.3,1.46,12.06,4.36,17.27,1.95,3.41,4.32,6.37,7.11,8.86l5.57-9.82c-1.2-1.32-2.25-2.79-3.15-4.42-1.95-3.56-2.93-7.53-2.93-11.87s.95-8.1,2.87-11.66c1.91-3.56,4.49-6.41,7.76-8.54,3.26-2.17,6.93-3.26,11.02-3.26,3.58,0,6.8.81,9.73,2.45l6.99-8.56c-.12-.08-.24-.15-.36-.23Z"/>
      <path class="cls-1" d="M402.57,34.64c-1.46-2.6-3.16-4.94-5.13-7.01l-5.79,10.22c.52.76,1.02,1.57,1.47,2.41,1.95,3.56,2.92,7.47,2.92,11.74s-.95,8.03-2.86,11.59c-1.87,3.52-4.46,6.36-7.76,8.53-3.26,2.13-6.93,3.2-11.02,3.2-2.78,0-5.25-.47-7.59-1.42l-7.11,8.71c4.49,2.43,9.39,3.64,14.7,3.64,4.52,0,8.73-.89,12.65-2.67,3.95-1.78,7.41-4.24,10.37-7.37,3-3.17,5.35-6.82,7.04-10.94,1.69-4.13,2.54-8.57,2.54-13.3,0-6.35-1.48-12.12-4.43-17.33ZM390.77,22.18c-4.92-3.09-10.37-4.63-16.36-4.63-4.47,0-8.7.89-12.65,2.67-3.96,1.78-7.43,4.26-10.43,7.42-2.96,3.13-5.28,6.79-6.98,10.95-1.7,4.13-2.55,8.59-2.55,13.37,0,6.3,1.46,12.06,4.36,17.27,1.95,3.41,4.32,6.37,7.11,8.86l5.57-9.82c-1.2-1.32-2.25-2.79-3.15-4.42-1.95-3.56-2.93-7.53-2.93-11.87s.95-8.1,2.87-11.66c1.91-3.56,4.49-6.41,7.76-8.54,3.26-2.17,6.93-3.26,11.02-3.26,3.58,0,6.8.81,9.73,2.45l6.99-8.56c-.12-.08-.24-.15-.36-.23Z"/>
      <g>
        <polygon class="cls-3" points="75.32 0 70.74 7.94 79.9 7.94 75.32 0"/>
        <polygon class="cls-2" points="79.9 7.94 75.32 15.87 84.49 15.87 79.9 7.94"/>
        <polygon class="cls-4" points="66.16 15.87 75.32 15.87 70.74 7.94 66.16 15.87"/>
      </g>
      <path class="cls-1" d="M342.88,45.07l.1-25.88-47.1.03.04,26.2,9.19-18.46,7.16.09-.07,50.23-7.4,7.13h29.7s-2.03-2.02-2.03-2.02c-2.26-1.7-4-3.2-5.68-5.03l-.09-50.39,7.09-.03,9.09,18.13Z"/>
      <path class="cls-1" d="M39.15,68.54l.17-17.82c.02-1.63-1.07-3.42-2.2-4.41l-5.58-4.87h30.27s-7.23,6.55-7.23,6.55l-.07,36.66-7.03-3.17c-9.21,4.36-19.75,5.4-29.24,1.23C-3.13,73.33-6.28,30.43,11.74,12.92c8.62-8.38,21.54-9.76,32.3-4.83,1.34.62,2.96.87,4.21.87l6.29-3.26-.03,28.77c-6.45-8.95-17.37-25.84-29.62-16.91-8.31,8.17-8.25,29.39-6.72,40.04.7,4.9,2.36,9.51,5.37,13.28,3.16,3.95,8.33,5.49,12.89,2.98,1.39-.77,2.72-3.45,2.74-5.32Z"/>
      <path class="cls-1" d="M277.62,84.51l-15.61-26.79-.2,19.79,6.93,6.82-27.9-.04,5.86-5.87c.65-.65,1.06-2.52,1.06-3.56V26.23s-7.11-6.94-7.11-6.94h28.86c10.61.02,21.98,5.82,20.98,18.23-.67,8.37-6.92,15.01-15.33,16.96l13.45,22.69c2.46,2.68,5.7,3.75,8.44,7.12l-19.44.21ZM272.35,45.13c5.57-3.54,5.85-12.25.84-16.05-3.35-2.55-7.49-2.27-11.4-2.02v19.7c3.5.14,7.28.45,10.56-1.63Z"/>
      <path class="cls-1" d="M183.52,79.6c-6.03,3.92-12.83,4.7-19.62,4.71l-25.42.04,6.78-6.61V25.95s-7.06-6.67-7.06-6.67l28.01.04c4.78,0,9.34,1.16,13.33,3.64,5.48,3.4,8.04,9.03,7.02,15.58-.86,5.46-4.91,10.13-11.34,11.89,5.73,1.4,11,4.44,13.35,10.02,2.84,6.76,1.41,14.97-5.04,19.15ZM172.83,34.91c-.35-4.08-2.81-7.35-6.79-7.94-2.1-.32-4.34-.26-6.7-.19l.02,20.07c3.4.36,6.82.39,9.56-1.47,3.35-2.28,4.28-6.31,3.92-10.46ZM175.71,66c.11-5.67-3.24-10.1-8.74-11.08-2.46-.44-5.22-.37-7.64-.17l.03,21.79c2.81,0,5.47-.07,8.05-.48,5.13-.81,8.21-4.77,8.3-10.06Z"/>
      <path class="cls-1" d="M218.5,54.9c-1.58-.16-3.99-.1-5.55,0l.02,21.83,13.2.04,10.31-21.96.19,29.66-45.57-.1,6.87-6.82V26.19s-6.79-6.92-6.79-6.92l45.52-.09-.23,26.21-10.11-18.62-13.42-.04.03,19.97c1.87.08,4.37.19,5.8-.1l7.46-5.63v21.92s-7.74-8-7.74-8Z"/>
      <path class="cls-1" d="M134.35,52.57l.16,31.91-43.14-.09c2.28-2.63,4.22-4.35,6.84-6.6l.02-51.93-6.62-6.56,28.4-.07-7.1,6.59.02,50.84,10.65.08,10.76-24.17Z"/>
      <polygon class="cls-1" points="89.34 84.38 61.58 84.33 68.18 77.79 68.21 25.87 61.31 19.21 89.32 19.19 82.46 25.9 82.51 77.49 89.34 84.38"/>
      <g>
        <path class="cls-1" d="M373.45,55.65v5.37c-2.5,3.06-4.99,6.11-7.48,9.17-.65.78-1.28,1.57-1.93,2.35-2.31,2.84-4.63,5.67-6.94,8.51-.64.78-1.27,1.55-1.91,2.33-1.6,1.97-3.2,3.93-4.81,5.9,1.26-2.21,2.51-4.43,3.76-6.64.5-.87,1-1.75,1.49-2.62,1.82-3.2,3.63-6.4,5.44-9.6.51-.89,1.01-1.78,1.51-2.67,1.92-3.39,3.84-6.77,5.76-10.16,1.02-.39,2.04-.77,3.05-1.16.69-.26,1.37-.52,2.06-.78Z"/>
        <path class="cls-1" d="M401.4,14.56c-1.56,2.75-3.12,5.51-4.68,8.26-.5.89-1.01,1.77-1.51,2.66-1.86,3.29-3.72,6.57-5.58,9.86-.52.92-1.04,1.84-1.57,2.76-1.54,2.72-3.08,5.44-4.62,8.16-1.16.44-2.33.88-3.5,1.32-.53.21-1.07.41-1.61.61v-5.37c2.14-2.62,4.28-5.25,6.42-7.87.64-.77,1.27-1.55,1.9-2.32,2.31-2.83,4.62-5.66,6.93-8.49.63-.78,1.27-1.55,1.9-2.33,1.97-2.42,3.95-4.83,5.92-7.25Z"/>
        <polygon class="cls-1" points="378 51.17 378.79 53.48 376.16 54.38 374.07 55.09 373.24 52.66 372.46 50.37 375.55 49.32 375.55 49.31 377.18 48.76 378 51.17"/>
      </g>
    </g>
  </g>
</svg>